<svg width="25" height="17" viewBox="0 0 25 17" fill="none" xmlns="http://www.w3.org/2000/svg">
<g clip-path="url(#clip0_643_3664)">
<path d="M7.43701 11.2176L8.19678 13.6768C8.36748 14.2352 8.43867 14.625 8.41016 14.8472C8.82568 13.737 9.11602 12.5271 9.2812 11.2176H10.1948C9.80195 13.3495 9.28384 14.8987 8.64072 15.8651C8.13965 16.6098 7.59072 16.9822 6.99297 16.9822C6.83359 16.9822 6.63711 16.9341 6.40395 16.8387V16.3249C6.51787 16.3415 6.65151 16.3504 6.80522 16.3504C7.08408 16.3504 7.30884 16.2733 7.47983 16.1194C7.68457 15.932 7.78706 15.7212 7.78706 15.4877C7.78706 15.3282 7.70713 15.0009 7.548 14.5058L6.4894 11.2176H7.43696H7.43701ZM1.62222 9.70605L3.01382 13.9417H3.02241L4.42256 9.70605H5.5665C5.81699 11.8067 5.96494 13.7286 6.01035 15.4708H5.0459C5.01196 13.8422 4.91797 12.3109 4.76426 10.8764H4.75586L3.28721 15.4708H2.55273L1.09297 10.8764H1.08438C0.976074 12.254 0.90791 13.7854 0.879492 15.4708H0C0.0568359 13.421 0.199072 11.4996 0.426709 9.70605H1.62227H1.62222Z" fill="#00758F"/>
<path d="M17.2118 9.62114C18.7088 9.62114 19.4572 10.5752 19.4572 12.4824C19.4572 13.5187 19.2321 14.3015 18.7824 14.8304C18.7013 14.927 18.6117 15.0105 18.5174 15.0879L19.5767 15.6104L19.5757 15.6104L19.1996 16.2583L17.82 15.4553C17.5914 15.5229 17.3398 15.5566 17.0656 15.5566C16.3306 15.5566 15.7816 15.3429 15.4186 14.9161C15.0201 14.4439 14.821 13.7005 14.821 12.6872C14.821 11.6567 15.0457 10.8769 15.4956 10.3473C15.9054 9.86294 16.4776 9.62109 17.2118 9.62109V9.62114ZM12.6278 9.62952C13.1629 9.62952 13.6493 9.77234 14.0875 10.057L13.865 10.5517C13.49 10.3927 13.1203 10.3129 12.7558 10.3129C12.46 10.3129 12.232 10.3839 12.0732 10.5268C11.9134 10.6685 11.8146 10.8507 11.8146 11.073C11.8146 11.4144 12.0584 11.7105 12.5087 11.9607C12.6562 12.0411 12.8032 12.1225 12.9496 12.2048L12.9832 12.2237L13.0001 12.2331L13.0337 12.252L13.0505 12.2614L13.0841 12.2803C13.4249 12.472 13.7456 12.6549 13.7456 12.6549C14.1958 12.9737 14.4202 13.3137 14.4202 13.8735C14.4202 14.3624 14.2406 14.7637 13.8826 15.0778C13.5244 15.3904 13.0431 15.5471 12.4403 15.5471C11.8766 15.5471 11.3303 15.3667 10.8011 15.0089L11.0486 14.5137C11.5041 14.7414 11.9162 14.8551 12.2862 14.8551C12.6333 14.8551 12.905 14.7778 13.1015 14.6252C13.2977 14.4714 13.4152 14.2569 13.4152 13.985C13.4152 13.6427 13.1765 13.3501 12.7387 13.1046C12.6016 13.0291 12.465 12.9528 12.3288 12.8758L12.2952 12.8569C12.2336 12.8222 12.1715 12.787 12.1108 12.7526L12.0778 12.7338C11.7821 12.5661 11.5265 12.4195 11.5265 12.4195C11.0888 12.1001 10.8693 11.7574 10.8693 11.1928C10.8693 10.7258 11.033 10.3483 11.3599 10.0612C11.6875 9.77341 12.1102 9.62952 12.6278 9.62952ZM21.2165 9.70668V14.7623H23.0347V15.4714H20.2943V9.70668H21.2165ZM24.0451 14.7644V14.8843H23.8452V15.4707H23.6923V14.8843H23.4847V14.7644H24.0451H24.0451ZM24.4142 14.7644L24.6062 15.2459L24.7825 14.7644H24.9991V15.4707H24.8551V14.9332L24.6544 15.4707H24.5506L24.3495 14.9332H24.3418V15.4707H24.2055V14.7644H24.4143H24.4142ZM17.1177 10.3301C16.2356 10.3301 15.7943 11.0564 15.7943 12.5079C15.7943 13.3394 15.9112 13.9424 16.1446 14.3182C16.3609 14.666 16.6995 14.8395 17.1606 14.8395C18.0427 14.8395 18.4839 14.1076 18.4839 12.6444C18.4839 11.8246 18.367 11.2268 18.1339 10.8508C17.9174 10.5038 17.5789 10.3301 17.1177 10.3301H17.1177Z" fill="#F29111"/>
<path d="M14.8055 0.357198C15.0982 -0.360114 16.1214 0.183106 16.5184 0.433674C16.6158 0.496364 16.7274 0.628808 16.8389 0.677763C17.013 0.684582 17.1869 0.698172 17.3613 0.70543C17.6884 0.782101 17.9947 0.844743 18.2524 0.991167C19.4501 1.69479 20.2297 2.41181 20.9473 3.59616C21.1006 3.84702 21.1772 4.11848 21.3024 4.38995C21.4763 4.79459 21.6716 5.21934 21.8733 5.60197C21.9637 5.78336 22.0335 5.98507 22.159 6.13827C22.2079 6.20832 22.3471 6.22897 22.4302 6.27081C22.6601 6.38952 22.9386 6.47963 23.1548 6.61895C23.5586 6.8701 23.949 7.16938 24.3038 7.47577C24.4361 7.59404 24.5263 7.76145 24.6523 7.88654V7.94967C24.5404 7.98391 24.4289 8.01899 24.3174 8.04709C24.0737 8.10954 23.8578 8.09541 23.6214 8.15791C23.4753 8.20019 23.2939 8.25596 23.1407 8.27014L23.1548 8.28436C23.245 8.54131 23.7327 8.75028 23.9557 8.90396C24.2266 9.099 24.4776 9.33554 24.6797 9.60719C24.7494 9.67651 24.8192 9.73959 24.8887 9.80871C24.9372 9.87876 24.9509 9.96936 25 10.0318V10.0529C24.9456 10.0338 24.9065 9.99727 24.8694 9.95908L24.8473 9.93604C24.8252 9.91315 24.8029 9.89064 24.7774 9.87208C24.6237 9.76736 24.4711 9.64207 24.3174 9.5447C24.0531 9.37743 23.7466 9.28035 23.4753 9.11244C23.3219 9.01497 23.1756 8.90396 23.0294 8.79241C22.8968 8.69465 22.7508 8.50692 22.6675 8.36761C22.6184 8.29064 22.6117 8.20019 22.5556 8.14451C22.5657 8.05153 22.6511 8.02391 22.7372 8.00121L22.7571 7.99599C22.7868 7.9883 22.8159 7.9806 22.8413 7.97042C23.2033 7.81708 23.6349 7.76145 24.1922 7.77538C24.1712 7.63578 23.823 7.46183 23.7118 7.37825C23.4887 7.21779 23.2524 7.05038 23.0157 6.90434C22.8902 6.82787 22.6741 6.77204 22.5351 6.70955C22.3471 6.63288 21.9291 6.55626 21.8249 6.41022C21.6479 6.18002 21.5208 5.90543 21.3973 5.62807L21.3638 5.55238C21.3526 5.52715 21.3413 5.50194 21.3301 5.47673C21.1842 5.14272 21.0029 4.79449 20.8567 4.45249C20.7802 4.28566 20.7451 4.13924 20.6614 3.97922C20.1532 2.99731 19.4011 2.17522 18.4892 1.59708C18.1896 1.40896 17.8555 1.23487 17.4866 1.11655C17.2776 1.05356 17.0267 1.08839 16.804 1.04007H16.6574C16.5323 1.0049 16.4279 0.872605 16.3303 0.802851C16.1147 0.656817 15.8988 0.558763 15.641 0.454571C15.5506 0.412777 15.2927 0.315453 15.2026 0.392075C15.1469 0.406055 15.1186 0.427049 15.1049 0.482872C15.0494 0.566167 15.0982 0.691645 15.1327 0.768462C15.2373 0.991069 15.3834 1.12337 15.516 1.31149C15.634 1.47832 15.7805 1.66644 15.8641 1.84784C16.0446 2.23777 16.1286 2.66978 16.2959 3.05966C16.3579 3.20628 16.456 3.37311 16.5463 3.50536C16.6228 3.61034 16.7619 3.68623 16.804 3.81911C16.8879 3.95842 16.6784 4.4181 16.6299 4.56409C16.4485 5.13532 16.4837 5.92935 16.6926 6.42449L16.7037 6.4506L16.7148 6.47705C16.7911 6.6584 16.8727 6.85368 17.0755 6.90439C17.0895 6.89056 17.0755 6.89781 17.1032 6.89056C17.1523 6.5073 17.1661 6.13822 17.2985 5.83836C17.375 5.65087 17.5278 5.51833 17.6326 5.36528C17.7024 5.40698 17.7024 5.5327 17.744 5.6159C17.8346 5.83169 17.9319 6.06827 18.0436 6.28469C18.2729 6.7304 18.5309 7.16251 18.8233 7.55239C18.9212 7.69165 19.0601 7.84494 19.1854 7.97037C19.2412 8.01894 19.3037 8.047 19.3456 8.10949H19.3593V8.13053C19.1504 8.05372 19.018 7.83812 18.8514 7.71226C18.5377 7.47567 18.1621 7.12037 17.9459 6.77945C17.8555 6.58373 17.7577 6.39614 17.6602 6.2014V6.18732C17.6186 6.24295 17.6326 6.29819 17.6117 6.38236C17.5213 6.7304 17.5909 7.12744 17.2776 7.25262C16.9224 7.39924 16.6575 7.01604 16.5463 6.84189C16.191 6.2639 16.0937 5.28881 16.3442 4.50169C16.3999 4.32745 16.4075 4.11848 16.5046 3.97937C16.4836 3.8536 16.3865 3.81921 16.3303 3.74215C16.2328 3.61043 16.1493 3.45699 16.073 3.31072C15.9264 3.02498 15.8222 2.68357 15.7109 2.37713C15.6619 2.25199 15.6479 2.12637 15.5992 2.0079C15.516 1.82709 15.3626 1.64569 15.2443 1.48573C15.0841 1.25581 14.6175 0.810207 14.8055 0.357198ZM17.0893 1.72183C17.1079 1.74043 17.1304 1.7567 17.1536 1.77273L17.1817 1.79192C17.219 1.81774 17.2552 1.84492 17.2774 1.88194C17.3125 1.93094 17.3191 1.97931 17.3612 2.02841C17.3612 2.19583 17.3125 2.30713 17.2143 2.3765C17.2143 2.3765 17.2077 2.3838 17.2008 2.39062C17.1451 2.27903 17.0963 2.16801 17.0403 2.05652C16.9712 1.95919 16.8736 1.88199 16.8174 1.77078H16.8038V1.7568C16.8879 1.7361 16.9712 1.72183 17.0893 1.72183Z" fill="#00758F"/>
</g>
<defs>
<clipPath id="clip0_643_3664">
<rect width="25" height="17" fill="white"/>
</clipPath>
</defs>
</svg>
